<?xml version="1.0" encoding="UTF-8" standalone="no"?>
<!-- Created with Inkscape (http://www.inkscape.org/) -->

<svg
   xmlns:dc="http://purl.org/dc/elements/1.1/"
   xmlns:cc="http://creativecommons.org/ns#"
   xmlns:rdf="http://www.w3.org/1999/02/22-rdf-syntax-ns#"
   xmlns:svg="http://www.w3.org/2000/svg"
   xmlns="http://www.w3.org/2000/svg"
   xmlns:xlink="http://www.w3.org/1999/xlink"
   xmlns:sodipodi="http://sodipodi.sourceforge.net/DTD/sodipodi-0.dtd"
   xmlns:inkscape="http://www.inkscape.org/namespaces/inkscape"
   width="100"
   height="130"
   id="svg5949"
   version="1.1"
   inkscape:version="0.48.4 r9939"
   sodipodi:docname="001_grass.svg"
   inkscape:export-filename="/home/jake/git/cityMaster/images/014_emergency/001_car_crash.png"
   inkscape:export-xdpi="90"
   inkscape:export-ydpi="90">
  <defs
     id="defs5951">
    <linearGradient
       id="linearGradient3845">
      <stop
         id="stop3847"
         offset="0"
         style="stop-color:#f60000;stop-opacity:1;" />
      <stop
         id="stop3849"
         offset="1"
         style="stop-color:#ff7e10;stop-opacity:1;" />
    </linearGradient>
    <filter
       inkscape:collect="always"
       id="filter3831"
       x="-0.076045197"
       width="1.1520904"
       y="-0.10287753"
       height="1.2057551">
      <feGaussianBlur
         inkscape:collect="always"
         stdDeviation="1.7532949"
         id="feGaussianBlur3833" />
    </filter>
    <radialGradient
       inkscape:collect="always"
       xlink:href="#linearGradient3845"
       id="radialGradient3843"
       cx="42.004467"
       cy="81.224197"
       fx="42.004467"
       fy="81.224197"
       r="7.4817371"
       gradientTransform="matrix(1,0,0,0.83517093,0,13.388109)"
       gradientUnits="userSpaceOnUse" />
    <filter
       inkscape:collect="always"
       id="filter3925"
       x="-0.1111727"
       width="1.2223454"
       y="-0.1338392"
       height="1.2676784">
      <feGaussianBlur
         inkscape:collect="always"
         stdDeviation="0.67460862"
         id="feGaussianBlur3927" />
    </filter>
  </defs>
  <sodipodi:namedview
     id="base"
     pagecolor="#ffffff"
     bordercolor="#666666"
     borderopacity="1.0"
     inkscape:pageopacity="0"
     inkscape:pageshadow="2"
     inkscape:zoom="3.8890873"
     inkscape:cx="67.292596"
     inkscape:cy="63.215649"
     inkscape:current-layer="layer1"
     showgrid="true"
     inkscape:document-units="px"
     inkscape:grid-bbox="true"
     inkscape:window-width="1317"
     inkscape:window-height="744"
     inkscape:window-x="49"
     inkscape:window-y="24"
     inkscape:window-maximized="1" />
  <metadata
     id="metadata5954">
    <rdf:RDF>
      <cc:Work
         rdf:about="">
        <dc:format>image/svg+xml</dc:format>
        <dc:type
           rdf:resource="http://purl.org/dc/dcmitype/StillImage" />
        <dc:title></dc:title>
      </cc:Work>
    </rdf:RDF>
  </metadata>
  <g
     id="layer1"
     inkscape:label="Layer 1"
     inkscape:groupmode="layer"
     transform="translate(0,66)">
    <g
       id="g3929">
      <path
         style="fill:#bb8d5d"
         inkscape:connector-curvature="0"
         id="path143"
         d="m 154.6518,32.630171 -50,-25.0000001 v -7.5 l 50,25.0000001 v 7.5 z" />
      <path
         style="fill:#7da343"
         inkscape:connector-curvature="0"
         id="path145"
         d="m 104.6518,0.1301709 v -7.5 l 50,25.0000001 v 7.5 l -50,-25.0000001 z" />
      <path
         style="fill:#8bb54a"
         inkscape:connector-curvature="0"
         id="path147"
         d="m 104.6518,-7.3698291 50,-24.9999979 49.99999,24.9999979 -49.99999,25.0000001 -50,-25.0000001 z" />
      <path
         style="fill:#74973e"
         inkscape:connector-curvature="0"
         id="path149"
         d="m 204.65179,-7.3698291 v 7.5 L 154.6518,25.130171 v -7.5 l 49.99999,-25.0000001 z" />
      <path
         style="fill:#9e7758"
         inkscape:connector-curvature="0"
         id="path151"
         d="m 204.65179,0.1301709 v 7.5 L 154.6518,32.630171 v -7.5 L 204.65179,0.1301709 z" />
    </g>
    <path
       transform="matrix(1.0067034,0.03491,0.15686102,0.9987813,-18.232663,-13.899627)"
       d="m 54.453536,35.863411 a 1.3416089,1.420527 0 1 1 -2.683218,0 1.3416089,1.420527 0 1 1 2.683218,0 z"
       sodipodi:ry="1.420527"
       sodipodi:rx="1.3416089"
       sodipodi:cy="35.863411"
       sodipodi:cx="53.111927"
       id="path3809"
       style="fill:#e03333;fill-opacity:1;stroke:#000000;stroke-width:0.31999999;stroke-linecap:round;stroke-linejoin:round;stroke-miterlimit:4;stroke-opacity:1;stroke-dasharray:none;stroke-dashoffset:0"
       sodipodi:type="arc" />
    <path
       sodipodi:type="arc"
       style="fill:#e03333;fill-opacity:1;stroke:#000000;stroke-width:0.31999999;stroke-linecap:round;stroke-linejoin:round;stroke-miterlimit:4;stroke-opacity:1;stroke-dasharray:none;stroke-dashoffset:0"
       id="path3811"
       sodipodi:cx="53.111927"
       sodipodi:cy="35.863411"
       sodipodi:rx="1.3416089"
       sodipodi:ry="1.420527"
       d="m 54.453536,35.863411 a 1.3416089,1.420527 0 1 1 -2.683218,0 1.3416089,1.420527 0 1 1 2.683218,0 z"
       transform="matrix(1.0067034,0.03491,0.15686102,0.9987813,-13.050845,-16.1269)" />
    <g
       id="g7662"
       transform="translate(32.10151,-1022.04)">
      <path
         d="m 11.087237,1034.6985 5.059703,2.4678 0,5.8225 -5.059703,-2.4678 z"
         style="fill:#e9e9ff;fill-opacity:1;fill-rule:evenodd;stroke:none"
         id="path7644"
         inkscape:connector-curvature="0" />
      <path
         d="m 1.8759579,1039.1912 0,5.8225 9.2112791,-4.4927 0,-5.8225 z"
         style="fill:#353564;fill-opacity:1;fill-rule:evenodd;stroke:none"
         id="path7646"
         inkscape:connector-curvature="0" />
      <path
         d="m 1.8759579,1045.0137 5.059702,2.4678 9.2112801,-4.4927 -5.059703,-2.4678 z"
         style="fill:#afafde;fill-opacity:1;fill-rule:evenodd;stroke:none"
         id="path7648"
         inkscape:connector-curvature="0" />
      <path
         d="m 1.8759579,1039.1912 5.059702,2.4678 9.2112801,-4.4927 -5.059703,-2.4678 z"
         style="fill:#b90f0f;fill-opacity:1;stroke:#000000;stroke-width:0.2064231;stroke-linecap:round;stroke-linejoin:round;stroke-miterlimit:4;stroke-opacity:1;stroke-dasharray:none;stroke-dashoffset:0"
         id="path7650"
         inkscape:connector-curvature="0" />
      <path
         d="m 6.9356599,1041.659 0,5.8225 9.2112801,-4.4927 0,-5.8225 z"
         style="fill:#e03333;fill-opacity:1;stroke:#000000;stroke-width:0.2064231;stroke-linecap:round;stroke-linejoin:round;stroke-miterlimit:4;stroke-opacity:1;stroke-dasharray:none;stroke-dashoffset:0"
         id="path7652"
         inkscape:connector-curvature="0" />
      <path
         d="m 1.8759579,1039.1912 5.059702,2.4678 0,5.8225 -5.059702,-2.4678 z"
         style="fill:#f21515;fill-opacity:1;stroke:#000000;stroke-width:0.2064231;stroke-linecap:round;stroke-linejoin:round;stroke-miterlimit:4;stroke-opacity:1;stroke-dasharray:none;stroke-dashoffset:0"
         id="path7654"
         inkscape:connector-curvature="0" />
    </g>
    <path
       style="fill:#ffffff;fill-opacity:1;stroke:#000000;stroke-width:0.31907645;stroke-linecap:butt;stroke-linejoin:round;stroke-miterlimit:4;stroke-opacity:1;stroke-dasharray:none"
       d="m 34.435952,17.603368 0.0307,5.302177 2.450125,1.221282 0.06063,-5.297212 z"
       id="path7484"
       inkscape:connector-curvature="0"
       sodipodi:nodetypes="ccccc" />
    <path
       sodipodi:nodetypes="ccccc"
       inkscape:connector-curvature="0"
       id="path3805"
       d="m 37.704546,15.863636 2.5,1.159091 2.40909,-1.204546 L 40.25,14.613636 z"
       style="fill:#ffffff;fill-opacity:1;stroke:#000000;stroke-width:0.25;stroke-linecap:butt;stroke-linejoin:round;stroke-miterlimit:4;stroke-opacity:1;stroke-dasharray:none" />
    <path
       sodipodi:type="arc"
       style="fill:#e03333;fill-opacity:1;stroke:#000000;stroke-width:0.31999999;stroke-linecap:round;stroke-linejoin:round;stroke-miterlimit:4;stroke-opacity:1;stroke-dasharray:none;stroke-dashoffset:0"
       id="path7478"
       sodipodi:cx="53.111927"
       sodipodi:cy="35.863411"
       sodipodi:rx="1.3416089"
       sodipodi:ry="1.420527"
       d="m 54.453536,35.863411 a 1.3416089,1.420527 0 1 1 -2.683218,0 1.3416089,1.420527 0 1 1 2.683218,0 z"
       transform="matrix(-0.03491,1.0067034,-0.9987813,0.15686102,78.216526,-40.501132)" />
    <path
       style="fill:#ffffff;fill-opacity:1;stroke:#000000;stroke-width:0.25;stroke-linecap:butt;stroke-linejoin:round;stroke-miterlimit:4;stroke-opacity:1;stroke-dasharray:none"
       d="m 34.545455,83.522727 2.5,1.159091 2.40909,-1.204546 -2.363636,-1.204545 z"
       id="path3035"
       inkscape:connector-curvature="0"
       transform="translate(0,-66)"
       sodipodi:nodetypes="ccccc" />
    <path
       style="fill:#ffffff;fill-opacity:1;stroke:#000000;stroke-width:0.25;stroke-linecap:butt;stroke-linejoin:round;stroke-miterlimit:4;stroke-opacity:1;stroke-dasharray:none"
       d="m 40.727273,14.363636 2.5,1.159091 2.40909,-1.204546 -2.363636,-1.204545 z"
       id="path3807"
       inkscape:connector-curvature="0"
       sodipodi:nodetypes="ccccc" />
    <path
       transform="matrix(-0.03491,1.0067034,-0.9987813,0.15686102,82.716525,-43.137496)"
       d="m 54.453536,35.863411 a 1.3416089,1.420527 0 1 1 -2.683218,0 1.3416089,1.420527 0 1 1 2.683218,0 z"
       sodipodi:ry="1.420527"
       sodipodi:rx="1.3416089"
       sodipodi:cy="35.863411"
       sodipodi:cx="53.111927"
       id="path3033"
       style="fill:#e03333;fill-opacity:1;stroke:#000000;stroke-width:0.31999999;stroke-linecap:round;stroke-linejoin:round;stroke-miterlimit:4;stroke-opacity:1;stroke-dasharray:none;stroke-dashoffset:0"
       sodipodi:type="arc" />
    <path
       style="fill:#7b7b7b;stroke:#000000;stroke-width:0;stroke-linecap:butt;stroke-linejoin:miter;stroke-opacity:1;fill-opacity:1;stroke-miterlimit:4;stroke-dasharray:none;filter:url(#filter3831);opacity:1"
       d="m 37.283812,84.488036 c -0.03922,-0.637852 -0.362923,-1.194561 -0.514259,-1.799908 -0.08571,-0.34284 0.171419,-0.34284 0,-0.771389 -0.114772,-0.286929 -0.376057,-0.494983 -0.51426,-0.771389 -0.02882,-0.05763 0,-0.967417 0,-1.028519 0,-0.42855 0,-0.857099 0,-1.285649 0,-0.17142 -0.05421,-0.351636 0,-0.514259 0.377978,-1.133935 0.02857,-0.271417 0.51426,-0.51426 0.693924,-0.346962 -0.0089,-0.115251 0.257129,-0.514259 0.134473,-0.20171 0.405844,-0.297429 0.51426,-0.51426 0.07666,-0.153322 0,-0.34284 0,-0.514259 0,-0.17142 0.05421,-0.351637 0,-0.51426 -0.03833,-0.114992 -0.202922,-0.148714 -0.25713,-0.25713 -0.121212,-0.242424 -0.191393,-0.508443 -0.25713,-0.771389 -0.02079,-0.08315 0.03833,-0.180468 0,-0.25713 -0.05421,-0.108415 -0.202922,-0.148714 -0.257129,-0.257129 -0.590921,-1.181842 0.06666,-0.447602 -0.51426,-1.028519 -0.25713,-0.25713 -0.514259,-0.51426 -0.771389,-0.771389 -0.17142,-0.17142 -0.368805,-0.320321 -0.51426,-0.51426 -0.487113,0.02928 -0.171419,-0.599969 -0.257129,-0.771389 -0.105761,-0.211521 -0.90174,-0.83835 -1.028519,-1.028519 -0.04754,-0.07131 0.03833,-0.180469 0,-0.25713 -0.05421,-0.108415 -0.202922,-0.148714 -0.25713,-0.25713 -0.03833,-0.07666 0.03833,-0.180468 0,-0.257129 -0.05421,-0.108416 -0.218799,-0.142138 -0.25713,-0.25713 -0.05421,-0.162623 0.05421,-0.351636 0,-0.51426 -0.03833,-0.114991 -0.202922,-0.148714 -0.257129,-0.257129 -0.03833,-0.07666 0,-0.17142 0,-0.25713 -0.17142,-0.17142 -0.379787,-0.31255 -0.51426,-0.514259 -0.05419,-0.08129 0.04056,-0.866278 0,-1.028519 -0.06574,-0.262946 -0.191393,-0.508444 -0.25713,-0.77139 -0.06306,-0.252231 0.07287,-1.13991 0,-1.285648 -0.05421,-0.108416 -0.202922,-0.148715 -0.257129,-0.25713 -0.03833,-0.07666 0,-0.17142 0,-0.25713 0,-0.266037 0.04898,-1.603972 0,-1.799908 -0.04648,-0.185931 -0.219544,-0.326328 -0.25713,-0.514259 -0.06013,-0.300652 0,-1.146183 0,-1.542779 0,-0.143665 -0.05058,-1.13391 0,-1.285649 0.29308,-0.87924 0.213272,-0.191343 0.771389,-1.028519 0.04754,-0.07131 -0.03833,-0.180468 0,-0.257129 0.154278,-0.308556 0.617111,-0.462834 0.771389,-0.771389 0.03833,-0.07666 -0.03833,-0.180469 0,-0.25713 0.108416,-0.216831 0.405844,-0.297429 0.51426,-0.51426 0.08216,-0.164311 -0.06899,-0.821555 0,-1.028519 0.06061,-0.181818 0.196523,-0.332441 0.257129,-0.514259 0.0271,-0.08131 -0.03833,-0.180469 0,-0.25713 0.05421,-0.108415 0.202923,-0.148714 0.25713,-0.25713 0.121212,-0.242424 0.191393,-0.508443 0.25713,-0.771389 0.02079,-0.08315 -0.04754,-0.185815 0,-0.25713 0.191665,-0.287497 0.74865,-0.74865 1.028519,-1.028519 0.34284,-0.342839 0.685679,-0.685679 1.028519,-1.028518 0.17142,-0.17142 0.34284,-0.34284 0.514259,-0.51426 0.08571,-0.08571 0.156276,-0.189893 0.25713,-0.25713 0.159465,-0.10631 0.360937,-0.142138 0.51426,-0.257129 0.290909,-0.218182 0.468825,-0.56968 0.771389,-0.77139 0.159465,-0.10631 0.342839,-0.171419 0.514259,-0.257129 0.507607,-0.253804 1.056295,-0.479499 1.542779,-0.77139 0.257129,-0.171419 0.514259,-0.342839 0.771389,-0.514259 0.08571,0 0.180468,0.03833 0.25713,0 0.108415,-0.05421 0.142137,-0.218799 0.257129,-0.25713 0.162624,-0.05421 0.351637,0.05421 0.51426,0 0.114992,-0.03833 0.142138,-0.218799 0.25713,-0.25713 1.765172,-0.58839 -1.197682,0.984536 1.285648,-0.257129 0.108416,-0.05421 0.142138,-0.218799 0.25713,-0.25713 0.162623,-0.05421 0.34284,0 0.51426,0 0.257129,0 0.519252,0.05043 0.771389,0 0.187931,-0.03759 0.325214,-0.225622 0.514259,-0.25713 0.327482,-0.05458 1.87536,0 2.314168,0 1.457068,0 2.914137,0 4.371205,0 1.028519,0 2.057038,0 3.085557,0 0.19859,0 1.385906,0.05229 1.542779,0 0.181818,-0.06061 0.332441,-0.196523 0.514259,-0.25713 0.243935,-0.08131 0.519253,0.05043 0.771389,0 0.265776,-0.05315 0.508444,-0.191393 0.77139,-0.257129 0.08315,-0.02079 0.17755,0.03183 0.257129,0 0.355891,-0.142357 0.672628,-0.371903 1.028519,-0.51426 0.07958,-0.03183 0.173085,0.01681 0.25713,0 0.346528,-0.0693 0.681991,-0.187824 1.028519,-0.257129 0.08405,-0.01681 0.180468,0.03833 0.25713,0 0.108415,-0.05421 0.144587,-0.212113 0.257129,-0.25713 0.404038,-0.697875 1.058715,-0.0635 1.542779,-0.25713 0.286928,-0.114771 0.494983,-0.376056 0.771389,-0.514259 0.07666,-0.03833 0.17142,0 0.25713,0 0.25713,0 0.521937,0.06236 0.771389,0 0.117593,-0.0294 0.148714,-0.202922 0.25713,-0.25713 0.07666,-0.03833 0.17142,0 0.25713,0 0.171419,0 0.342839,0 0.514259,0 0.514259,0 1.028519,0 1.542778,0 1.028519,0 2.057038,0 3.085557,0 0.25713,0 0.51426,0 0.77139,0 0.171419,0 0.347957,-0.04158 0.514259,0 0.185931,0.04648 0.332441,0.196524 0.514259,0.25713 0.08131,0.0271 0.175819,-0.0271 0.25713,0 0.181818,0.06061 0.328329,0.210647 0.51426,0.257129 0.166301,0.04158 0.347958,-0.04158 0.514259,0 0.185931,0.04648 0.332441,0.196524 0.51426,0.25713 0.08131,0.0271 0.173979,-0.02079 0.257129,0 0.262946,0.06574 0.505614,0.203975 0.77139,0.25713 0.168091,0.03362 0.3551,-0.06366 0.514259,0 0.286929,0.114771 0.494983,0.376056 0.771389,0.514259 0.07666,0.03833 0.173979,-0.02079 0.25713,0 0.262946,0.06574 0.505614,0.203975 0.771389,0.25713 1.300621,0.260124 -0.544634,-0.577835 1.542779,0.25713 0.112542,0.04502 0.16016,0.184402 0.257129,0.257129 0.247226,0.185419 0.506397,0.355265 0.77139,0.51426 0.752811,0.451687 0.691888,0.08881 1.542778,0.514259 0.108415,0.05421 0.16016,0.184403 0.25713,0.25713 0.247225,0.185419 0.494983,0.376057 0.771389,0.51426 0.153323,0.07666 0.360937,-0.07666 0.51426,0 0.108415,0.05421 0.156275,0.189893 0.257129,0.257129 0.159465,0.10631 0.354795,0.15082 0.51426,0.25713 0.100854,0.06724 0.148714,0.202922 0.257129,0.25713 0.242425,0.121212 0.538976,0.117681 0.77139,0.25713 0.343967,0.20638 0.896186,0.88865 1.028519,1.285648 0.05553,0.166599 0,1.075137 0,1.285649 0,0.215475 0.05464,1.176365 0,1.285649 -0.108416,0.216831 -0.34284,0.342839 -0.51426,0.514259 -0.08571,0.08571 -0.148714,0.202922 -0.25713,0.25713 -0.07666,0.03833 -0.171419,0 -0.257129,0 -0.17142,0.08571 -0.360937,0.142138 -0.51426,0.25713 -0.193939,0.145454 -0.342839,0.342839 -0.514259,0.514259 -0.08571,0.08571 -0.148715,0.202922 -0.25713,0.25713 -0.242424,0.121212 -0.508443,0.191393 -0.771389,0.25713 -0.541041,0.13526 0.02582,-0.340782 -0.771389,0.257129 -0.19394,0.145455 -0.34284,0.34284 -0.51426,0.51426 -0.08571,0.08571 -0.148714,0.202922 -0.25713,0.25713 -0.74842,0.37421 -0.904174,0.08852 -1.542778,0.514259 -0.302564,0.201709 -0.48048,0.553207 -0.771389,0.771389 -0.153323,0.114992 -0.34284,0.17142 -0.51426,0.25713 -0.17142,0.08571 -0.332441,0.196524 -0.514259,0.25713 -0.08131,0.0271 -0.185815,-0.04754 -0.25713,0 -0.201709,0.134473 -0.32032,0.368805 -0.514259,0.514259 -0.153323,0.114992 -0.34284,0.17142 -0.51426,0.25713 -0.17142,0.08571 -0.332441,0.196524 -0.514259,0.25713 -0.08131,0.0271 -0.173979,-0.02079 -0.25713,0 -0.262946,0.06574 -0.508443,0.191393 -0.771389,0.257129 -0.08315,0.02079 -0.180469,-0.03833 -0.25713,0 -2.425339,1.21267 0.0563,0.04818 -1.028519,0.77139 -1.561052,1.040701 0.805107,-0.740195 -1.285649,0.514259 -0.207877,0.124726 -0.297428,0.405844 -0.514259,0.51426 -0.205704,0.102851 -0.565686,-0.102852 -0.771389,0 -0.108416,0.05421 -0.156276,0.189893 -0.25713,0.257129 -0.17142,0.08571 -0.34284,0.17142 -0.51426,0.25713 -0.08571,0 -0.180468,-0.03833 -0.257129,0 -0.108416,0.05421 -0.17142,0.17142 -0.25713,0.25713 -0.17142,0.17142 -0.34284,0.342839 -0.51426,0.514259 -0.257129,0.25713 -0.553207,0.48048 -0.771389,0.77139 -0.29221,0.389613 -0.474943,1.17222 -0.771389,1.542778 -0.227162,0.283952 -0.51426,0.514259 -0.771389,0.771389 -0.08571,0.08571 -0.202922,0.148714 -0.25713,0.25713 -0.03833,0.07666 0.03833,0.180468 0,0.25713 -0.05421,0.108415 -0.17142,0.171419 -0.25713,0.257129 -0.17142,0.17142 -0.32032,0.368805 -0.514259,0.51426 -0.153323,0.114992 -0.360937,0.142138 -0.51426,0.25713 -0.193939,0.145454 -0.31255,0.379786 -0.514259,0.514259 -0.07131,0.04754 -0.175818,-0.0271 -0.25713,0 -0.181818,0.06061 -0.336314,0.185952 -0.514259,0.25713 -0.251653,0.100661 -0.51426,0.17142 -0.77139,0.25713 -0.257129,0.08571 -0.505614,0.203974 -0.771389,0.257129 -0.168091,0.03362 -0.360937,-0.07666 -0.514259,0 -0.216831,0.108416 -0.34284,0.34284 -0.51426,0.51426 -0.08571,0.08571 -0.142138,0.218799 -0.25713,0.257129 -0.162623,0.05421 -0.347957,-0.04157 -0.514259,0 -0.185931,0.04648 -0.328329,0.210647 -0.514259,0.25713 -0.166302,0.04158 -0.351637,-0.05421 -0.51426,0 -0.114992,0.03833 -0.156275,0.189894 -0.25713,0.25713 -0.159465,0.10631 -0.354794,0.15082 -0.514259,0.25713 -0.100855,0.06724 -0.17142,0.17142 -0.25713,0.257129 -0.17142,0.08571 -0.354794,0.15082 -0.514259,0.25713 -0.20171,0.134473 -0.297429,0.405844 -0.51426,0.51426 -0.242424,0.121212 -0.528965,0.135917 -0.771389,0.257129 -0.227904,0.113952 -0.53732,0.615344 -0.771389,0.77139 -0.159465,0.10631 -0.378741,0.12161 -0.51426,0.257129 -0.06061,0.06061 0.03833,0.180469 0,0.25713 -0.05421,0.108416 -0.202922,0.148714 -0.25713,0.25713 -0.03833,0.07666 0.03833,0.180468 0,0.25713 -0.05421,0.108415 -0.218799,0.142137 -0.257129,0.257129 -0.05421,0.162623 0.05421,0.351637 0,0.51426 -0.03833,0.114992 -0.17142,0.17142 -0.25713,0.25713 -0.17142,0.171419 -0.34284,0.342839 -0.514259,0.514259 -0.25713,0.25713 -0.51426,0.514259 -0.77139,0.771389 -0.08571,0.08571 -0.156275,0.189894 -0.257129,0.25713 -0.159466,0.10631 -0.34284,0.17142 -0.51426,0.25713 -0.17142,0.08571 -0.336314,0.185951 -0.514259,0.257129 -0.251653,0.100662 -0.538976,0.117682 -0.77139,0.25713 -0.207877,0.124726 -0.289174,0.424226 -0.514259,0.51426 -0.238739,0.09549 -0.521937,-0.06236 -0.771389,0 -0.117593,0.0294 -0.156275,0.189893 -0.25713,0.257129 -0.31893,0.212621 -0.709589,0.30164 -1.028519,0.51426 -0.201709,0.134473 -0.34284,0.34284 -0.514259,0.514259 -0.34284,0.34284 -0.68568,0.68568 -1.028519,1.028519 -0.202045,0.202044 -1.203757,1.121865 -1.285649,1.285649 -0.121212,0.242424 -0.191393,0.508443 -0.25713,0.771389 -0.04157,0.166302 0.09509,0.37163 0,0.51426 -0.134473,0.201709 -0.405844,0.297428 -0.514259,0.514259 -0.08081,0.161612 0.08081,0.866907 0,1.028519 -0.05421,0.108416 -0.218799,0.142138 -0.25713,0.25713 -0.05421,0.162623 0,0.342839 0,0.514259 0,0.08571 0.03833,0.180469 0,0.25713 -0.05421,0.108415 -0.17142,0.17142 -0.25713,0.25713 -0.08571,0.08571 -0.148714,0.202922 -0.25713,0.25713 -0.07666,0.03833 -0.180468,-0.03833 -0.257129,0 -0.108416,0.05421 -0.17142,0.171419 -0.25713,0.257129"
       id="path3813"
       inkscape:connector-curvature="0"
       transform="translate(0,-66)" />
    <path
       style="fill:url(#radialGradient3843);stroke:#000000;stroke-width:0;stroke-linecap:butt;stroke-linejoin:miter;stroke-opacity:1;stroke-miterlimit:4;stroke-dasharray:none;fill-opacity:1;opacity:1;filter:url(#filter3925)"
       d="M 36.181818,87.272727 C 35.618102,86.145295 36.158669,87.361948 36,86.727273 c -0.01643,-0.06574 -0.07447,-0.116082 -0.09091,-0.181818 -0.0147,-0.0588 0.02251,-0.125547 0,-0.181819 -0.04058,-0.101444 -0.116263,-0.18532 -0.181818,-0.272727 -0.02571,-0.03428 -0.07736,-0.05025 -0.09091,-0.09091 -0.03833,-0.114992 0.02377,-0.244778 0,-0.363636 -0.09459,-0.472928 -0.06061,-0.09091 -0.181819,-0.454546 -0.0096,-0.02875 0,-0.06061 0,-0.09091 0,-0.09091 0,-0.181818 0,-0.272727 0,-0.06061 0.01189,-0.122389 0,-0.181818 0.176838,-0.252572 -0.148949,-0.232164 -0.181818,-0.363637 -0.01633,-0.06533 0,-0.445216 0,-0.545454 0,-0.03097 -0.0164,-0.314436 0,-0.363637 0.05544,-0.166317 0.155705,-0.246613 0.272728,-0.363636 0.06061,-0.06061 0.143487,-0.105157 0.181818,-0.181818 0.01069,-0.02138 0,-0.303916 0,-0.363637 0,-0.141234 0.01687,-0.716937 0,-0.818181 -0.01114,-0.06684 -0.06948,-0.117536 -0.09091,-0.181819 -0.0096,-0.02875 0.0073,-0.06151 0,-0.09091 -0.02324,-0.09297 -0.06767,-0.179761 -0.09091,-0.272727 -0.0073,-0.0294 0,-0.06061 0,-0.09091 0,-0.09091 0.01783,-0.183584 0,-0.272727 -0.01329,-0.06644 -0.07447,-0.116082 -0.09091,-0.181818 -0.0147,-0.0588 0.02251,-0.125547 0,-0.181819 -0.04058,-0.101444 -0.125604,-0.179038 -0.181818,-0.272727 -0.03486,-0.0581 -0.06061,-0.121212 -0.09091,-0.181818 -0.0303,-0.06061 -0.06948,-0.117536 -0.09091,-0.181818 -0.0096,-0.02875 0.01355,-0.06381 0,-0.09091 -0.07902,-0.158042 -0.203123,-0.292137 -0.272727,-0.454546 -0.02387,-0.05571 0.0147,-0.123022 0,-0.181818 -0.104461,-0.417844 -0.09091,-0.02063 -0.09091,-0.272727 0,-0.69697 0,-1.39394 0,-2.090909 0,-0.110971 -0.03528,-0.209635 0.09091,-0.272728 0.0271,-0.01355 0.06061,0 0.09091,0 0.0303,0 0.06061,0 0.09091,0 0.212121,0 0.424242,0 0.636364,0 0.204305,0 0.334238,-0.0147 0.545454,0.09091 0.07666,0.03833 0.121212,0.121213 0.181818,0.181819 0.06061,0.06061 0.121213,0.121212 0.181819,0.181818 0.121212,0.121212 0.260784,0.2265 0.363636,0.363636 0.01818,0.02424 0,0.06061 0,0.09091 0,0.151515 0,0.303031 0,0.454546 0,0.60606 0,1.212121 0,1.818182 0,0.151515 0,0.30303 0,0.454545 0,0.06061 0,0.121212 0,0.181818 0,0.0303 -0.01355,0.0638 0,0.09091 0.01917,0.03833 0.06061,0.06061 0.09091,0.09091 0.0303,0.0303 0.06061,0.06061 0.09091,0.09091 0.0303,0.0303 0.04805,0.09091 0.09091,0.09091 0.06931,0 0.181656,-0.272076 0.181818,-0.272728 0.0147,-0.0588 -0.02251,-0.125547 0,-0.181818 0.04058,-0.101444 0.125605,-0.179038 0.181819,-0.272727 0.08061,-0.134353 0.14465,-0.305874 0.181818,-0.454546 0.0073,-0.0294 -0.005,-0.06102 0,-0.09091 0.09443,-0.566557 0.09091,-0.344451 0.09091,-0.818182 0,-0.06061 0,-0.121212 0,-0.181818 0,-0.09091 -0.03376,-0.18832 0,-0.272727 0.181818,-0.454545 0.136363,0 0.272727,-0.272727 0.04848,-0.09697 -0.04849,-0.08485 0,-0.181818 0.01207,-0.02414 0.24859,-0.260659 0.272727,-0.272728 0.05421,-0.0271 0.127611,0.0271 0.181819,0 0.07666,-0.03833 0.105156,-0.143487 0.181818,-0.181818 0.0271,-0.01355 0.06061,0 0.09091,0 0.0303,0 0.06061,0 0.09091,0 0.07697,0 0.314763,-0.01629 0.363636,0 0.04066,0.01355 0.06061,0.06061 0.09091,0.09091 0.0303,0.0303 0.0825,0.04889 0.09091,0.09091 0.02377,0.118859 0,0.242424 0,0.363637 0,0.30303 0,0.60606 0,0.909091 0,0.30303 0,0.60606 0,0.90909 0,0.121213 0.01714,0.243643 0,0.363637 -0.01355,0.09486 -0.07212,0.178761 -0.09091,0.272727 -0.01188,0.05943 0.0147,0.123022 0,0.181818 -0.01643,0.06574 -0.06061,0.121212 -0.09091,0.181818 0,0.09091 0.01783,0.183584 0,0.272728 -0.01329,0.06644 -0.07448,0.116081 -0.09091,0.181818 -9e-6,3.7e-5 -0.0095,0.435584 0,0.454545 0.01917,0.03833 0.05025,0.07736 0.09091,0.09091 0.0575,0.01917 0.121212,0 0.181818,0 0.09091,0 0.183584,0.01783 0.272728,0 0.06644,-0.01329 0.125439,-0.05332 0.181818,-0.09091 0.565806,-0.377204 0.180922,-0.135579 0.545454,-0.454545 C 40.632661,80.75324 40.864276,80.648437 41,80.454545 41.088609,80.327961 41.01587,80.135071 41.090909,80 c 0.236343,-0.425418 0.529169,-0.341922 0.818182,-0.727273 0.07497,-0.09995 0.04451,-0.24763 0.09091,-0.363636 0.0755,-0.18874 0.203258,-0.354414 0.272727,-0.545455 0.0528,-0.145213 0.05025,-0.305474 0.09091,-0.454545 0.05043,-0.1849 0.144232,-0.357523 0.181819,-0.545455 0.02377,-0.118858 -0.01339,-0.243165 0,-0.363636 0.01706,-0.153571 0.07174,-0.301223 0.09091,-0.454545 0.05675,-0.453983 -0.08295,-0.106822 0.09091,-0.454546 0.06061,-0.121212 0.131487,-0.23781 0.181818,-0.363636 0.03559,-0.08897 0.06767,-0.179762 0.09091,-0.272728 0.0074,-0.0294 -0.01355,-0.06381 0,-0.09091 0.01917,-0.03833 0.06061,-0.06061 0.09091,-0.09091 0.0303,-0.0303 0.05258,-0.07174 0.09091,-0.09091 0.02767,-0.01383 0.231786,0 0.272727,0 0.06061,0 0.121213,0 0.181819,0 0.0303,0 0.06381,-0.01355 0.09091,0 0.03833,0.01916 0.06061,0.06061 0.09091,0.09091 0.0303,0.0303 0.07174,0.05258 0.09091,0.09091 0.0271,0.05421 -0.0147,0.123022 0,0.181819 0.02324,0.09296 0.04161,0.190556 0.09091,0.272727 0.0441,0.0735 0.149986,0.102238 0.181818,0.181818 0.03376,0.08441 0,0.181818 0,0.272727 0,0.151515 0.02972,0.305973 0,0.454546 -0.01329,0.06644 -0.06574,0.118905 -0.09091,0.181818 -0.07118,0.177945 -0.106322,0.369297 -0.181818,0.545454 -0.05338,0.124562 -0.114582,0.245973 -0.181818,0.363637 -0.05421,0.09486 -0.118313,0.183819 -0.181818,0.272727 -0.08807,0.123293 -0.216456,0.222958 -0.272728,0.363636 -0.06846,0.171143 -0.04241,0.367624 -0.09091,0.545455 -0.160518,0.588566 -0.318642,0.546375 -0.636363,1.181818 -0.117675,0.23535 -0.09091,0.478576 -0.09091,0.727273 0,0.09091 0.02205,0.184532 0,0.272727 -0.01039,0.04158 -0.07174,0.05258 -0.09091,0.09091 -0.01355,0.0271 0.0096,0.06216 0,0.09091 -0.219497,0.658493 0.02621,-0.143328 -0.181818,0.272728 -0.01355,0.0271 0,0.06061 0,0.09091 0,0.0303 0,0.06061 0,0.09091 0,0.0303 -0.01355,0.06381 0,0.09091 0.04534,0.09068 0.276725,0.250999 0.363637,0.272727 0.0588,0.0147 0.121212,0 0.181818,0 0.09091,0 0.183055,0.01495 0.272727,0 0.168713,-0.02812 0.515935,-0.197459 0.636364,-0.272727 0.128484,-0.0803 0.235809,-0.191383 0.363636,-0.272727 0.206116,-0.131165 0.428294,-0.235594 0.636364,-0.363637 0.186103,-0.114525 0.363636,-0.242424 0.545454,-0.363636 0.181818,-0.121212 0.37064,-0.232526 0.545455,-0.363636 0.189339,-0.142005 0.356115,-0.312541 0.545454,-0.454546 0.174815,-0.131111 0.37064,-0.232525 0.545455,-0.363636 0.189339,-0.142005 0.356115,-0.312541 0.545454,-0.454546 0.01915,-0.01436 1.086059,-0.722422 1.090909,-0.727272 0.08952,-0.08952 0.330512,-0.743651 0.363637,-0.818182 0.110079,-0.247678 0.262975,-0.47562 0.363636,-0.727273 0.02173,-0.05433 -0.05216,-0.181818 0.09091,-0.181818 0.0303,0 0,0.06061 0,0.09091 0,0.181818 0,0.363636 0,0.545454 0,0.575758 0,1.151516 0,1.727273 0,0.212121 0,0.424243 0,0.636364 0,0.09091 0.01783,0.183583 0,0.272727 -0.01329,0.06644 -0.06061,0.121212 -0.09091,0.181818 -0.06061,0.121212 -0.121212,0.242424 -0.181818,0.363637 -0.09091,0.181818 -0.159968,0.376316 -0.272727,0.545454 -0.04754,0.07131 -0.121212,0.121212 -0.181818,0.181818 -0.151516,0.151515 -0.303031,0.303031 -0.454546,0.454546 C 48,81.909091 47.909091,82 47.818182,82.090909 c -0.0303,0.0303 -0.06714,0.05525 -0.09091,0.09091 -0.423016,0.634524 0.403396,-0.446952 -0.272728,0.454546 -0.02571,0.03428 -0.07174,0.05258 -0.09091,0.09091 -0.04286,0.08571 -0.04805,0.187017 -0.09091,0.272727 -0.01836,0.03672 -0.360911,0.360911 -0.363636,0.363636 -0.0303,0.0303 -0.07174,0.05258 -0.09091,0.09091 -0.01211,0.02423 0,0.504328 0,0.545455 0,0.0303 0.01355,0.06381 0,0.09091 -0.01917,0.03833 -0.06061,0.06061 -0.09091,0.09091 -0.09091,0.09091 -0.181818,0.181818 -0.272728,0.272727 -0.06061,0.06061 -0.108322,0.137721 -0.181818,0.181819 -0.08217,0.0493 -0.192994,0.03775 -0.272727,0.09091 -0.178287,0.118858 -0.276258,0.335687 -0.454545,0.454545 -0.112759,0.07517 -0.250878,0.106646 -0.363637,0.181818 -0.07131,0.04754 -0.11325,0.130393 -0.181818,0.181819 -0.05421,0.04066 -0.12761,0.05025 -0.181818,0.09091 -0.06857,0.05143 -0.121212,0.121212 -0.181818,0.181818 -0.09091,0.09091 -0.181819,0.181818 -0.272728,0.272727 -0.06061,0.06061 -0.121212,0.121212 -0.181818,0.181818 -0.0303,0.0303 -0.04933,0.08051 -0.09091,0.09091 -0.0882,0.02205 -0.181818,0 -0.272727,0 -0.181818,0 -0.365041,-0.02255 -0.545455,0 -0.123977,0.0155 -0.239207,0.0796 -0.363636,0.09091 -0.21125,0.0192 -0.426374,-0.03 -0.636364,0 -0.218392,0.0312 -0.423203,0.124976 -0.636363,0.181819 -0.241448,0.06439 -0.485825,0.117432 -0.727273,0.181818 -0.213161,0.05684 -0.417972,0.150619 -0.636364,0.181818 -0.209989,0.03 -0.424242,0 -0.636363,0 -0.121212,0 -0.244074,-0.01993 -0.363637,0 -0.626766,0.104461 0.07281,0.09091 -0.272727,0.09091"
       id="path3835"
       inkscape:connector-curvature="0"
       transform="translate(0,-66)" />
  </g>
</svg>
