<?xml version="1.0" encoding="UTF-8" standalone="no"?>
<!-- Created with Inkscape (http://www.inkscape.org/) -->

<svg
   xmlns:dc="http://purl.org/dc/elements/1.1/"
   xmlns:cc="http://creativecommons.org/ns#"
   xmlns:rdf="http://www.w3.org/1999/02/22-rdf-syntax-ns#"
   xmlns:svg="http://www.w3.org/2000/svg"
   xmlns="http://www.w3.org/2000/svg"
   xmlns:sodipodi="http://sodipodi.sourceforge.net/DTD/sodipodi-0.dtd"
   xmlns:inkscape="http://www.inkscape.org/namespaces/inkscape"
   width="100"
   height="130"
   id="svg5949"
   version="1.1"
   inkscape:version="0.48.4 r9939"
   sodipodi:docname="1_building.svg">
  <defs
     id="defs5951">
    <inkscape:perspective
       sodipodi:type="inkscape:persp3d"
       inkscape:vp_x="-3.9403014 : 2.2749344 : 0"
       inkscape:vp_y="0 : 120.7837 : 0"
       inkscape:vp_z="20.19064 : 11.657072 : 0"
       inkscape:persp3d-origin="43.818368 : 30.960771 : 1"
       id="perspective3143" />
    <inkscape:perspective
       sodipodi:type="inkscape:persp3d"
       inkscape:vp_x="-39.40301 : 22.749339 : 0"
       inkscape:vp_y="0 : 1207.8368 : 0"
       inkscape:vp_z="201.90638 : 116.5707 : 0"
       inkscape:persp3d-origin="53.825699 : 33.94089 : 1"
       id="perspective3005" />
    <inkscape:perspective
       sodipodi:type="inkscape:persp3d"
       inkscape:vp_x="-39.40301 : 22.749339 : 0"
       inkscape:vp_y="0 : 1207.8368 : 0"
       inkscape:vp_z="201.90638 : 116.5707 : 0"
       inkscape:persp3d-origin="66.15518 : 28.834863 : 1"
       id="perspective3005-8" />
    <inkscape:perspective
       sodipodi:type="inkscape:persp3d"
       inkscape:vp_x="-3.9403014 : 2.2749344 : 0"
       inkscape:vp_y="0 : 120.7837 : 0"
       inkscape:vp_z="20.19064 : 11.657072 : 0"
       inkscape:persp3d-origin="43.818368 : 30.960771 : 1"
       id="perspective3143-7" />
  </defs>
  <sodipodi:namedview
     id="base"
     pagecolor="#ffffff"
     bordercolor="#666666"
     borderopacity="1.0"
     inkscape:pageopacity="0"
     inkscape:pageshadow="2"
     inkscape:zoom="5.5"
     inkscape:cx="48.000153"
     inkscape:cy="70.998438"
     inkscape:current-layer="layer2"
     showgrid="true"
     inkscape:document-units="px"
     inkscape:grid-bbox="true"
     inkscape:window-width="1317"
     inkscape:window-height="744"
     inkscape:window-x="49"
     inkscape:window-y="24"
     inkscape:window-maximized="1"
     inkscape:snap-global="true">
    <inkscape:grid
       type="xygrid"
       id="grid3095"
       empspacing="5"
       visible="false"
       enabled="false"
       snapvisiblegridlinesonly="false" />
    <inkscape:grid
       type="axonomgrid"
       id="grid3097"
       units="mm"
       empspacing="5"
       visible="true"
       enabled="false"
       snapvisiblegridlinesonly="true"
       gridanglex="30"
       gridanglez="45" />
  </sodipodi:namedview>
  <metadata
     id="metadata5954">
    <rdf:RDF>
      <cc:Work
         rdf:about="">
        <dc:format>image/svg+xml</dc:format>
        <dc:type
           rdf:resource="http://purl.org/dc/dcmitype/StillImage" />
        <dc:title></dc:title>
      </cc:Work>
    </rdf:RDF>
  </metadata>
  <g
     id="layer1"
     inkscape:label="Layer 1"
     inkscape:groupmode="layer"
     transform="translate(0,66)">
    <path
       d="M 50.000001,63.999999 1.7236751e-8,38.999999 v -7.5 L 50.000001,56.499999 v 7.5 z"
       id="path143"
       inkscape:connector-curvature="0"
       style="fill:#bb8d5d" />
    <path
       d="m 1.1723675e-7,31.499999 v -7.5 L 50.000001,48.999999 v 7.5 l -50.00000088276326,-25 z"
       id="path145"
       inkscape:connector-curvature="0"
       style="fill:#7da343" />
    <path
       d="M 1.1723675e-7,23.999999 50.000001,-0.99999913 99.999983,23.999999 l -49.999982,25 -50.00000088276326,-25 z"
       id="path147"
       inkscape:connector-curvature="0"
       style="fill:#8bb54a" />
    <path
       d="m 99.999983,23.999999 v 7.5 l -49.999982,25 v -7.5 l 49.999982,-25 z"
       id="path149"
       inkscape:connector-curvature="0"
       style="fill:#74973e" />
    <path
       d="m 99.999983,31.499999 v 7.5 l -49.999982,25 v -7.5 l 49.999982,-25 z"
       id="path151"
       inkscape:connector-curvature="0"
       style="fill:#9e7758" />
    <path
       d="M 4.3636449,22.000021 C 12.865621,18.830072 24.411076,12.943703 33.831038,7.8498212 43.250999,2.7559393 49.09092,0.09090819 49.09092,0.09090819 l 5.931816,2.96591181 5.931817,2.9659118 7.022725,2.9659119 c 0,0 5.33662,1.7121253 7.56818,3.3295483 1.075102,0.779229 0.473195,2.82036 2.659089,2.965912 4.357601,0.29016 6.47727,2.602275 6.47727,2.602275 l 6.113635,2.056821 c 0,0 5.682754,1.564702 5.749998,3.875003 0.01625,0.558275 -0.471962,0.36938 -1.33265,1.01561 -0.860688,0.646229 -0.655556,-0.06705 -2.21046,1.040344 -1.554904,1.107399 -3.415299,2.399117 -5.497948,3.782624 -2.082649,1.383508 -3.66028,2.495168 -6.831476,2.515178 -2.854251,0.01801 -5.572319,2.584733 -8.211045,3.965276 -2.638725,1.380543 -5.878688,0.485996 -8.00029,3.769284 -1.566083,2.423594 -4.761206,4.198956 -7.290122,4.836292 -2.528916,0.637337 -4.947144,0.996341 -7.171448,0.984483 C 45.341602,45.70246 43.484859,43.196991 39.318192,41.113658 35.151526,39.030324 29.348495,37.310627 25.181828,35.227294 21.015161,33.143961 18.484858,30.696991 14.318191,28.613658 10.151524,26.530324 -0.00130109,23.627485 4.3636449,22.000021 z"
       id="path147-0"
       inkscape:connector-curvature="0"
       style="fill:#d1d1d1;fill-opacity:1"
       sodipodi:nodetypes="ssccccssccsssssssssssss" />
  </g>
  <g
     inkscape:groupmode="layer"
     id="layer2"
     inkscape:label="building">
    <g
       sodipodi:type="inkscape:box3d"
       style="fill:none;stroke:none"
       id="g3035"
       inkscape:perspectiveID="#perspective3005-8"
       inkscape:corner0="3.4653513 : 0.01669714 : 0 : 1"
       inkscape:corner7="0.10990095 : -0.019787732 : 0.25 : 1">
      <g
         sodipodi:type="inkscape:box3d"
         style="fill:none;stroke:none"
         id="g3111"
         inkscape:perspectiveID="#perspective3143-7"
         inkscape:corner0="6.4551307 : 0.55883997 : 0 : 1"
         inkscape:corner7="0.77226698 : -0.0055853295 : 1.1796947 : 1">
        <path
           sodipodi:type="inkscape:box3dside"
           id="path3123"
           style="fill:#e9e9ff;fill-rule:evenodd;stroke:none"
           inkscape:box3dsidetype="11"
           d="m 42.201998,3.1036848 22.392196,12.9281422 0,68.173376 -22.392196,-12.928142 z" />
        <path
           sodipodi:type="inkscape:box3dside"
           id="path3113"
           style="fill:#353564;fill-rule:evenodd;stroke:none"
           inkscape:box3dsidetype="6"
           d="m 18.383207,16.855471 0,68.173376 23.818791,-13.751786 0,-68.1733762 z" />
        <path
           sodipodi:type="inkscape:box3dside"
           id="path3121"
           style="fill:#afafde;fill-rule:evenodd;stroke:none"
           inkscape:box3dsidetype="13"
           d="M 18.383207,85.028847 40.775403,97.956989 64.594194,84.205203 42.201998,71.277061 z" />
        <path
           sodipodi:type="inkscape:box3dside"
           id="path3115"
           style="fill:#9f684d;fill-rule:evenodd;stroke:none;fill-opacity:1"
           inkscape:box3dsidetype="5"
           d="M 18.383207,16.855471 40.775403,29.783613 64.594194,16.031827 42.201998,3.1036848 z" />
        <path
           sodipodi:type="inkscape:box3dside"
           id="path3119"
           style="fill:#ffe4d7;fill-rule:evenodd;stroke:none;fill-opacity:1"
           inkscape:box3dsidetype="14"
           d="m 40.775403,29.783613 0,68.173376 23.818791,-13.751786 0,-68.173376 z" />
        <path
           sodipodi:type="inkscape:box3dside"
           id="path3117"
           style="fill:#bf9986;fill-rule:evenodd;stroke:none;fill-opacity:1"
           inkscape:box3dsidetype="3"
           d="m 18.383207,16.855471 22.392196,12.928142 0,68.173376 -22.392196,-12.928142 z" />
      </g>
    </g>
  </g>
</svg>
